<svg width="24" height="25" viewBox="0 0 24 25" fill="none" xmlns="http://www.w3.org/2000/svg">
<path d="M11 5.49999H6C5.46957 5.49999 4.96086 5.71071 4.58579 6.08578C4.21071 6.46085 4 6.96956 4 7.49999V18.5C4 19.0304 4.21071 19.5391 4.58579 19.9142C4.96086 20.2893 5.46957 20.5 6 20.5H17C17.5304 20.5 18.0391 20.2893 18.4142 19.9142C18.7893 19.5391 19 19.0304 19 18.5V13.5M20.414 6.91399C20.605 6.7295 20.7574 6.50881 20.8622 6.2648C20.967 6.0208 21.0222 5.75836 21.0245 5.4928C21.0268 5.22724 20.9762 4.96388 20.8756 4.71809C20.7751 4.47229 20.6266 4.24899 20.4388 4.0612C20.251 3.87342 20.0277 3.72491 19.7819 3.62435C19.5361 3.52379 19.2728 3.47319 19.0072 3.47549C18.7416 3.4778 18.4792 3.53297 18.2352 3.63779C17.9912 3.74261 17.7705 3.89497 17.586 4.08599L9 12.672V15.5H11.828L16.121 11.207L17 10.328" stroke="black" stroke-linecap="round" stroke-linejoin="round"/>
<circle cx="18.6953" cy="8.67706" r="0.872314" fill="black"/>
</svg>
