<svg width="90" height="90" viewBox="0 0 90 90" fill="none" xmlns="http://www.w3.org/2000/svg">
<circle cx="45" cy="45" r="30" fill="white"/>
<path fill-rule="evenodd" clip-rule="evenodd" d="M45 81C54.5478 81 63.7045 77.2072 70.4558 70.4558C77.2072 63.7045 81 54.5478 81 45C81 35.4522 77.2072 26.2955 70.4558 19.5442C63.7045 12.7928 54.5478 9 45 9C35.4522 9 26.2955 12.7928 19.5442 19.5442C12.7928 26.2955 9 35.4522 9 45C9 54.5478 12.7928 63.7045 19.5442 70.4558C26.2955 77.2072 35.4522 81 45 81ZM42.9975 32.256C42.3198 31.8038 41.5321 31.5442 40.7183 31.5046C39.9046 31.4651 39.0954 31.6472 38.3771 32.0316C37.6587 32.4159 37.0582 32.9881 36.6396 33.687C36.2209 34.3859 35.9999 35.1853 36 36V54C35.9999 54.8147 36.2209 55.6141 36.6396 56.313C37.0582 57.0119 37.6587 57.5841 38.3771 57.9684C39.0954 58.3528 39.9046 58.5349 40.7183 58.4954C41.5321 58.4558 42.3198 58.1962 42.9975 57.744L56.4975 48.744C57.1138 48.333 57.6191 47.7763 57.9686 47.1232C58.3181 46.4701 58.501 45.7408 58.501 45C58.501 44.2592 58.3181 43.5299 57.9686 42.8768C57.6191 42.2237 57.1138 41.667 56.4975 41.256L42.9975 32.256Z" fill="#2265C9"/>
</svg>
