<svg width="24" height="24" viewBox="0 0 24 24" fill="none" xmlns="http://www.w3.org/2000/svg">
<path d="M19 13.4838V5C19 4.46957 18.7893 3.96086 18.4142 3.58579C18.0391 3.21071 17.5304 3 17 3H7C6.46957 3 5.96086 3.21071 5.58579 3.58579C5.21071 3.96086 5 4.46957 5 5V21L12 17.5L19 21V19" stroke="black" stroke-linecap="round" stroke-linejoin="round"/>
<path d="M19.8723 16.3191C19.8723 16.8009 19.4818 17.1914 19 17.1914C18.5182 17.1914 18.1277 16.8009 18.1277 16.3191C18.1277 15.8373 18.5182 15.4468 19 15.4468C19.4818 15.4468 19.8723 15.8373 19.8723 16.3191Z" fill="black"/>
</svg>
