<svg width="40" height="40" viewBox="0 0 40 40" fill="none" xmlns="http://www.w3.org/2000/svg">
<path d="M20.4156 10.0769C21.9688 10.0769 23.9156 9.0089 25.075 7.58487C26.125 6.29434 26.8906 4.49205 26.8906 2.68976C26.8906 2.44501 26.8688 2.20025 26.825 2C25.0969 2.06675 23.0188 3.17927 21.7719 4.67006C20.7875 5.80483 19.8906 7.58487 19.8906 9.40941C19.8906 9.67642 19.9344 9.94342 19.9563 10.0324C20.0656 10.0547 20.2406 10.0769 20.4156 10.0769ZM14.9469 37C17.0688 37 18.0094 35.5537 20.6563 35.5537C23.3469 35.5537 23.9375 36.9555 26.3 36.9555C28.6188 36.9555 30.1719 34.775 31.6375 32.6389C33.2781 30.1914 33.9563 27.7883 34 27.6771C33.8469 27.6326 29.4063 25.7858 29.4063 20.6014C29.4063 16.1068 32.9063 14.082 33.1031 13.9263C30.7844 10.5442 27.2625 10.4552 26.3 10.4552C23.6969 10.4552 21.575 12.0572 20.2406 12.0572C18.7969 12.0572 16.8938 10.5442 14.6406 10.5442C10.3531 10.5442 6 14.1488 6 20.9574C6 25.185 7.61875 29.6573 9.60938 32.5499C11.3156 34.9975 12.8031 37 14.9469 37Z" fill="white"/>
</svg>
