<svg width="25" height="24" viewBox="0 0 25 24" fill="none" xmlns="http://www.w3.org/2000/svg">
<path d="M7.44446 8H17.4445M7.44446 12H11.4445M20.8587 15.4142C20.4836 15.7893 19.9749 16 19.4445 16H16.4445L12.4445 20L8.44446 16H5.44446C4.91403 16 4.40532 15.7893 4.03024 15.4142C3.65517 15.0391 3.44446 14.5304 3.44446 14V6C3.44446 5.46957 3.65517 4.96086 4.03024 4.58579C4.40532 4.21071 4.91403 4 5.44446 4H19.4445C19.9749 4 20.4836 4.21071 20.8587 4.58579C21.2337 4.96086 21.4445 5.46957 21.4445 6V10.2595" stroke="black" stroke-linecap="round" stroke-linejoin="round"/>
<path d="M22.3168 12.8546C22.3168 13.3364 21.9262 13.7269 21.4445 13.7269C20.9627 13.7269 20.5721 13.3364 20.5721 12.8546C20.5721 12.3728 20.9627 11.9823 21.4445 11.9823C21.9262 11.9823 22.3168 12.3728 22.3168 12.8546Z" fill="black"/>
</svg>
