<svg width="370" height="66" viewBox="0 0 370 66" fill="none" xmlns="http://www.w3.org/2000/svg">
<path d="M0 29C0 24.0294 4.02944 20 9 20H370V38H8.99999C4.02943 38 0 33.9706 0 29V29Z" fill="url(#paint0_linear_6167_20350)"/>
<circle cx="9" cy="29" r="6" fill="white"/>
<circle cx="61" cy="29" r="6" fill="white"/>
<circle cx="153" cy="29" r="6" fill="white"/>
<circle cx="285" cy="29" r="6" fill="white"/>
<path d="M0.812155 61V51.0994H2.86671V59.2983H7.12569V61H0.812155ZM14.4091 53.5746L11.8035 61H9.53137L6.93054 53.5746H9.07212L10.6287 58.9116H10.7061L12.2676 53.5746H14.4091ZM16.1537 61.1209C15.5204 61.1209 14.9983 60.6084 15.0079 59.9751C14.9983 59.3467 15.5204 58.8343 16.1537 58.8343C16.7676 58.8343 17.2994 59.3467 17.3042 59.9751C17.2994 60.6084 16.7676 61.1209 16.1537 61.1209ZM21.9781 51.0994V61H19.9235V53.0573H19.8655L17.5934 54.4834V52.6561L20.0444 51.0994H21.9781Z" fill="#0A0A0B"/>
<path d="M47.8122 61V51.0994H49.8667V59.2983H54.1257V61H47.8122ZM61.4091 53.5746L58.8035 61H56.5314L53.9305 53.5746H56.0721L57.6287 58.9116H57.7061L59.2676 53.5746H61.4091ZM63.1537 61.1209C62.5204 61.1209 61.9983 60.6084 62.0079 59.9751C61.9983 59.3467 62.5204 58.8343 63.1537 58.8343C63.7676 58.8343 64.2994 59.3467 64.3042 59.9751C64.2994 60.6084 63.7676 61.1209 63.1537 61.1209ZM65.9447 61L65.9399 59.5159L69.4931 56.2431C70.4164 55.3584 70.9143 54.8122 70.9192 54.0193C70.9143 53.1443 70.2472 52.6029 69.3432 52.6029C68.4102 52.6029 67.8011 53.1878 67.8059 54.1402H65.8529C65.8432 52.2017 67.279 50.9641 69.3625 50.9641C71.4848 50.9641 72.8964 52.1727 72.9012 53.8888C72.8964 55.0152 72.3501 55.9434 70.3052 57.7901L68.8018 59.2452V59.3128H73.0366V61H65.9447Z" fill="#0A0A0B"/>
<path d="M140.812 61V51.0994H142.867V59.2983H147.126V61H140.812ZM154.409 53.5746L151.803 61H149.531L146.931 53.5746H149.072L150.629 58.9116H150.706L152.268 53.5746H154.409ZM156.154 61.1209C155.52 61.1209 154.998 60.6084 155.008 59.9751C154.998 59.3467 155.52 58.8343 156.154 58.8343C156.768 58.8343 157.299 59.3467 157.304 59.9751C157.299 60.6084 156.768 61.1209 156.154 61.1209ZM162.304 61.1354C160.119 61.1354 158.563 59.9413 158.529 58.2155H160.603C160.636 58.9454 161.357 59.4337 162.309 59.4337C163.295 59.4337 164.001 58.8874 163.996 58.0898C164.001 57.2825 163.286 56.712 162.121 56.712H161.202V55.1892H162.121C163.097 55.1892 163.779 54.6575 163.774 53.8743C163.779 53.1202 163.199 52.6029 162.324 52.6029C161.449 52.6029 160.728 53.0912 160.704 53.8501H158.732C158.761 52.1485 160.298 50.9641 162.333 50.9641C164.393 50.9641 165.766 52.1872 165.756 53.7486C165.766 54.8605 164.997 55.6485 163.88 55.8467V55.924C165.34 56.1029 166.138 56.9876 166.128 58.2251C166.138 59.9171 164.533 61.1354 162.304 61.1354Z" fill="#0A0A0B"/>
<path d="M271.812 61V51.0994H273.867V59.2983H278.126V61H271.812ZM285.409 53.5746L282.803 61H280.531L277.931 53.5746H280.072L281.629 58.9116H281.706L283.268 53.5746H285.409ZM287.154 61.1209C286.52 61.1209 285.998 60.6084 286.008 59.9751C285.998 59.3467 286.52 58.8343 287.154 58.8343C287.768 58.8343 288.299 59.3467 288.304 59.9751C288.299 60.6084 287.768 61.1209 287.154 61.1209ZM289.785 59.2452V57.6257L293.972 51.0994H296.553V57.5967H297.805V59.2452H296.553V61H294.59V59.2452H289.785ZM291.859 57.5967H294.624V53.3522H294.532L291.859 57.5193V57.5967Z" fill="#0A0A0B"/>
<path d="M22.7541 12L22.7459 11.2293L25.6381 8.17956C26.6409 7.1105 27.1215 6.53867 27.1298 5.75967C27.1215 4.88121 26.3923 4.31768 25.4392 4.31768C24.4282 4.31768 23.7901 4.9558 23.7901 5.90884H22.7873C22.779 4.40884 23.9392 3.39779 25.4724 3.39779C27.0138 3.39779 28.1077 4.4337 28.116 5.75967C28.1077 6.70442 27.6685 7.44199 26.1602 8.99171L24.221 10.9972V11.0635H28.2652V12H22.7541ZM30.0258 12V3.51381H31.0368V8.45304H31.1528L33.9042 5.63536H35.1473L32.4747 8.35359L35.3462 12H34.07L31.7122 9L31.0368 9.63398V12H30.0258ZM36.4454 12V5.63536H37.4233V6.63812H37.5061C37.7713 5.95028 38.3846 5.55249 39.2133 5.55249C40.0503 5.55249 40.6139 5.95028 40.9205 6.63812H40.9868C41.31 5.97514 41.9813 5.55249 42.8929 5.55249C44.0282 5.55249 44.8404 6.24862 44.8404 7.74033V12H43.8293V7.75691C43.8293 6.82044 43.2409 6.4558 42.5448 6.4558C41.6581 6.4558 41.1525 7.05249 41.1525 7.86464V12H40.1332V7.65746C40.1332 6.93646 39.6194 6.4558 38.8818 6.4558C38.1277 6.4558 37.4564 7.10221 37.4564 8.03039V12H36.4454Z" fill="#40474F"/>
<path d="M93.547 10.268V9.39779L97.3674 3.51381H98.6602V9.33978H99.8536V10.268H98.6602V12H97.6575V10.268H93.547ZM94.6823 9.33978H97.6575V4.84807H97.558L94.6823 9.27348V9.33978ZM101.471 12V3.51381H102.482V8.45304H102.598L105.35 5.63536H106.593L103.92 8.35359L106.792 12H105.515L103.158 9L102.482 9.63398V12H101.471ZM107.891 12V5.63536H108.869V6.63812H108.951C109.217 5.95028 109.83 5.55249 110.659 5.55249C111.496 5.55249 112.059 5.95028 112.366 6.63812H112.432C112.755 5.97514 113.427 5.55249 114.338 5.55249C115.474 5.55249 116.286 6.24862 116.286 7.74033V12H115.275V7.75691C115.275 6.82044 114.686 6.4558 113.99 6.4558C113.103 6.4558 112.598 7.05249 112.598 7.86464V12H111.579V7.65746C111.579 6.93646 111.065 6.4558 110.327 6.4558C109.573 6.4558 108.902 7.10221 108.902 8.03039V12H107.891Z" fill="#40474F"/>
<path d="M208.704 12.116C207.238 12.0994 205.613 11.2293 205.613 8.08011C205.613 5.08011 206.848 3.39779 208.837 3.39779C210.329 3.39779 211.373 4.31768 211.588 5.64365H210.544C210.354 4.89779 209.782 4.33425 208.837 4.33425C207.445 4.33425 206.608 5.52762 206.608 7.57459H206.715C207.204 6.86188 207.983 6.44751 208.895 6.44751C210.403 6.44751 211.663 7.61602 211.663 9.25691C211.663 10.8564 210.494 12.1326 208.704 12.116ZM206.757 9.28177C206.757 10.2762 207.569 11.1878 208.704 11.1878C209.807 11.1878 210.635 10.326 210.644 9.26519C210.635 8.22928 209.84 7.37569 208.738 7.37569C207.619 7.37569 206.765 8.27901 206.757 9.28177ZM213.342 12V3.51381H214.353V8.45304H214.469L217.221 5.63536H218.464L215.791 8.35359L218.663 12H217.386L215.029 9L214.353 9.63398V12H213.342ZM219.762 12V5.63536H220.74V6.63812H220.823C221.088 5.95028 221.701 5.55249 222.53 5.55249C223.367 5.55249 223.93 5.95028 224.237 6.63812H224.303C224.626 5.97514 225.298 5.55249 226.209 5.55249C227.345 5.55249 228.157 6.24862 228.157 7.74033V12H227.146V7.75691C227.146 6.82044 226.557 6.4558 225.861 6.4558C224.974 6.4558 224.469 7.05249 224.469 7.86464V12H223.45V7.65746C223.45 6.93646 222.936 6.4558 222.198 6.4558C221.444 6.4558 220.773 7.10221 220.773 8.03039V12H219.762Z" fill="#40474F"/>
<path d="M331.597 12.116C329.807 12.116 328.572 11.1298 328.58 9.74586C328.572 8.65193 329.334 7.74862 330.304 7.59116V7.54972C329.459 7.35083 328.903 6.57182 328.903 5.65193C328.903 4.35083 330.039 3.39779 331.597 3.39779C333.138 3.39779 334.273 4.35083 334.282 5.65193C334.273 6.57182 333.71 7.35083 332.881 7.54972V7.59116C333.843 7.74862 334.605 8.65193 334.613 9.74586C334.605 11.1298 333.362 12.116 331.597 12.116ZM329.633 9.68785C329.616 10.5829 330.37 11.1878 331.597 11.1878C332.807 11.1878 333.561 10.5829 333.561 9.68785C333.561 8.75138 332.732 8.06354 331.597 8.06354C330.453 8.06354 329.616 8.75138 329.633 9.68785ZM329.931 5.72652C329.931 6.5884 330.619 7.16851 331.597 7.16851C332.558 7.16851 333.254 6.5884 333.254 5.72652C333.254 4.88121 332.583 4.30939 331.597 4.30939C330.586 4.30939 329.931 4.88121 329.931 5.72652ZM336.26 12V3.51381H337.271V8.45304H337.387L340.139 5.63536H341.382L338.709 8.35359L341.581 12H340.304L337.947 9L337.271 9.63398V12H336.26ZM342.68 12V5.63536H343.658V6.63812H343.741C344.006 5.95028 344.619 5.55249 345.448 5.55249C346.285 5.55249 346.848 5.95028 347.155 6.63812H347.221C347.544 5.97514 348.216 5.55249 349.127 5.55249C350.263 5.55249 351.075 6.24862 351.075 7.74033V12H350.064V7.75691C350.064 6.82044 349.475 6.4558 348.779 6.4558C347.892 6.4558 347.387 7.05249 347.387 7.86464V12H346.368V7.65746C346.368 6.93646 345.854 6.4558 345.116 6.4558C344.362 6.4558 343.691 7.10221 343.691 8.03039V12H342.68Z" fill="#40474F"/>
<defs>
<linearGradient id="paint0_linear_6167_20350" x1="272.209" y1="29" x2="-1.35678e-08" y2="29" gradientUnits="userSpaceOnUse">
<stop stop-color="#1D56AB"/>
<stop offset="1" stop-color="#578FE3"/>
</linearGradient>
</defs>
</svg>
