<svg width="25" height="24" viewBox="0 0 25 24" fill="none" xmlns="http://www.w3.org/2000/svg">
<path d="M18.5556 12L20.5556 12M18.5556 12C18.5556 11.4696 18.3449 10.9609 17.9698 10.5858C17.5947 10.2107 17.086 10 16.5556 10C16.0251 10 15.5164 10.2107 15.1414 10.5858C14.7663 10.9609 14.5556 11.4696 14.5556 12M18.5556 12C18.5556 12.5304 18.3449 13.0391 17.9698 13.4142C17.5947 13.7893 17.086 14 16.5556 14C16.0251 14 15.5164 13.7893 15.1414 13.4142C14.7663 13.0391 14.5556 12.5304 14.5556 12M14.5556 12L4.55557 12M6.55557 6C6.55557 6.53043 6.76629 7.03914 7.14136 7.41421C7.51643 7.78929 8.02514 8 8.55557 8C9.08601 8 9.59471 7.78929 9.96979 7.41421C10.3449 7.03914 10.5556 6.53043 10.5556 6M6.55557 6C6.55557 5.46957 6.76629 4.96086 7.14136 4.58579C7.51643 4.21071 8.02514 4 8.55557 4C9.08601 4 9.59471 4.21071 9.96979 4.58579C10.3449 4.96086 10.5556 5.46957 10.5556 6M6.55557 6L4.55557 6M10.5556 6L20.5556 6M6.55557 18C6.55557 18.5304 6.76629 19.0391 7.14136 19.4142C7.51643 19.7893 8.02514 20 8.55557 20C9.086 20 9.59471 19.7893 9.96979 19.4142C10.3449 19.0391 10.5556 18.5304 10.5556 18M6.55557 18C6.55557 17.4696 6.76629 16.9609 7.14136 16.5858C7.51643 16.2107 8.02514 16 8.55557 16C9.086 16 9.59471 16.2107 9.96979 16.5858C10.3449 16.9609 10.5556 17.4696 10.5556 18M6.55557 18L4.55557 18M10.5556 18L14.338 18M20.5556 18L18.9795 18" stroke="black" stroke-linecap="round" stroke-linejoin="round"/>
<path d="M17.4497 17.9766C17.4497 18.4584 17.0591 18.8489 16.5774 18.8489C16.0956 18.8489 15.705 18.4584 15.705 17.9766C15.705 17.4949 16.0956 17.1043 16.5774 17.1043C17.0591 17.1043 17.4497 17.4949 17.4497 17.9766Z" fill="black"/>
</svg>
