<svg width="110" height="110" viewBox="0 0 110 110" fill="none" xmlns="http://www.w3.org/2000/svg">
<circle cx="55" cy="55" r="36.6667" fill="white"/>
<path fill-rule="evenodd" clip-rule="evenodd" d="M55 99C66.6695 99 77.8611 94.3643 86.1127 86.1127C94.3643 77.8611 99 66.6695 99 55C99 43.3305 94.3643 32.1389 86.1127 23.8873C77.8611 15.6357 66.6695 11 55 11C43.3305 11 32.1389 15.6357 23.8873 23.8873C15.6357 32.1389 11 43.3305 11 55C11 66.6695 15.6357 77.8611 23.8873 86.1127C32.1389 94.3643 43.3305 99 55 99ZM44 38.5C42.5413 38.5 41.1424 39.0795 40.1109 40.1109C39.0795 41.1424 38.5 42.5413 38.5 44V66C38.5 67.4587 39.0795 68.8576 40.1109 69.8891C41.1424 70.9205 42.5413 71.5 44 71.5H66C67.4587 71.5 68.8576 70.9205 69.8891 69.8891C70.9205 68.8576 71.5 67.4587 71.5 66V44C71.5 42.5413 70.9205 41.1424 69.8891 40.1109C68.8576 39.0795 67.4587 38.5 66 38.5H44Z" fill="#0A0A0B"/>
</svg>
