<svg width="103" height="103" viewBox="0 0 103 103" fill="none" xmlns="http://www.w3.org/2000/svg">
<path d="M89.5238 86.1624C98.1921 76.6626 102.968 64.3713 102.968 51.4835C102.968 23.0949 79.8721 0 51.4846 0C23.096 0 0 23.096 0 51.4835C0 65.5287 5.55311 78.6526 15.6361 88.4362C15.6483 88.4484 15.6649 88.4518 15.6771 88.4628C15.819 88.5925 15.9775 88.6956 16.1482 88.7677C16.1782 88.781 16.2092 88.9007 16.2403 88.9118C16.4188 88.9761 16.6039 89.1313 16.7924 89.1313H16.7946C16.9564 89.1313 17.1161 88.9872 17.2713 88.9395C17.3001 88.9307 17.3289 88.8686 17.3578 88.8575C17.5085 88.8032 17.6527 88.6968 17.7857 88.5981C17.7957 88.5903 17.809 88.5748 17.8178 88.567C23.7091 83.9529 24.504 78.3056 24.504 73.3966C24.504 73.3833 24.5006 73.3678 24.5006 73.3556C24.4995 73.2924 24.4907 73.2314 24.4818 73.1693C24.4751 73.1206 24.4707 73.0707 24.4596 73.023C24.4474 72.9698 24.4286 72.9177 24.412 72.8656C24.3942 72.8146 24.3809 72.7625 24.3587 72.7148C24.3366 72.666 24.3088 72.6217 24.2833 72.5751C24.2579 72.5286 24.2335 72.4809 24.2035 72.4376C24.1714 72.3922 24.1337 72.3512 24.0971 72.309C24.065 72.2713 24.0339 72.2314 23.9984 72.196C23.9596 72.1583 23.9142 72.1261 23.8709 72.0906C23.8288 72.0574 23.7889 72.0219 23.7446 71.9942C23.7035 71.9676 23.6592 71.9465 23.616 71.9243C23.5605 71.8955 23.5062 71.8656 23.4486 71.8434C23.4375 71.839 23.4275 71.8312 23.4153 71.8268C19.6759 70.4554 17.1626 66.7892 17.1626 62.7017V38.1767C17.1626 36.8042 18.1072 35.9173 19.5684 35.9173H20.4885V49.2208C20.4885 50.1398 21.2324 50.8837 22.1515 50.8837C23.0705 50.8837 23.8144 50.1398 23.8144 49.2208V32.9495C23.8144 31.5936 25.066 30.4484 26.5472 30.4484C26.7489 30.4484 26.9707 30.4883 27.1913 30.5438C27.1746 30.7311 27.1403 30.9107 27.1403 31.1036V49.2208C27.1403 50.1398 27.8842 50.8837 28.8032 50.8837C29.7223 50.8837 30.4662 50.1398 30.4662 49.2208V31.1036C30.4662 29.8298 31.2511 28.5394 32.7521 28.5394C33.2898 28.5394 33.9306 28.6735 34.6013 29.6679C34.8053 29.9706 34.9007 30.4274 34.9007 31.1058V33.7C34.9007 33.8441 34.9239 33.9816 34.9594 34.1146C34.2322 35.1058 33.792 36.3507 33.792 37.7554V49.2208C33.792 50.1398 34.5359 50.8837 35.455 50.8837C36.374 50.8837 37.1179 50.1398 37.1179 49.2208V37.7554C37.1179 36.4816 37.9028 35.1911 39.4039 35.1911C39.9416 35.1911 40.5824 35.3253 41.2531 36.3197C41.4571 36.6224 41.5524 37.0791 41.5524 37.7576V45.5158C39.5846 46.4825 38.2265 48.478 38.2265 50.7839V56.9812C38.2265 57.8991 38.9704 58.6441 39.8895 58.6441C40.8085 58.6441 41.5524 57.8991 41.5524 56.9812V50.7839C41.5524 49.3937 42.7719 48.2197 44.2153 48.2197C45.6588 48.2197 46.8794 49.3948 46.8794 50.7839L46.8672 63.9899C46.8672 67.3191 44.6278 69.7359 42.7497 71.1749C42.242 71.5652 41.2686 71.7647 40.3263 71.9587L40.1944 71.9853C40.0513 72.0141 39.9194 72.0674 39.7941 72.1294C38.9205 72.1804 38.2265 72.8977 38.2265 73.7835V74.8622C38.2265 75.5739 38.4261 76.2247 38.4205 77.0407C38.3795 83.1946 37.8108 90.3774 32.4317 96.997C32.0958 97.4117 31.9783 97.9615 32.1158 98.4771C32.2544 98.9915 32.6302 99.4094 33.1291 99.6001C38.9815 101.835 45.1577 102.968 51.4846 102.968C59.0377 102.968 66.3147 101.371 73.1139 98.2187C73.5529 98.0136 73.8811 97.629 74.0141 97.1633C74.146 96.6966 74.0684 96.1966 73.8012 95.7931C69.604 89.444 68.7426 82.5472 68.7426 74.1427C68.7426 73.2248 67.9943 72.4798 67.0763 72.4798C66.9821 72.4798 66.8923 72.4931 66.8025 72.5064C66.7338 72.4975 66.665 72.4853 66.5941 72.4853C61.3458 72.4853 57.0754 68.1661 57.0754 62.8547V58.6186C57.0732 55.5566 59.0166 53.6553 62.144 53.6553H75.3655C76.2835 53.6553 77.0285 52.9103 77.0285 51.9924V38.0226C77.0285 36.7875 77.7225 35.4583 79.2457 35.4583C80.769 35.4583 81.463 36.7887 81.463 38.0237V45.7652C79.5184 46.7907 78.1371 48.7718 78.1371 50.9369V56.9812C78.1371 57.8991 78.8821 58.6441 79.8 58.6441C80.718 58.6441 81.463 57.8991 81.463 56.9812V50.938C81.463 49.6121 82.8798 48.3583 84.3798 48.3583C85.8786 48.3583 87.2955 49.5977 87.2955 50.9059L87.2666 64.0841C87.2666 68.6639 83.4707 72.39 78.8045 72.39C74.166 72.39 70.2481 68.5009 70.2481 63.899C70.2481 62.9811 69.5031 62.2361 68.5852 62.2361C67.6672 62.2361 66.9222 62.9811 66.9222 63.899C66.9222 70.3046 72.3634 75.7159 78.8045 75.7159C80.1237 75.7159 81.3898 75.4908 82.5749 75.0939C82.6093 78.6825 82.9862 82.5539 86.4462 86.0981C86.5338 86.2955 86.6624 86.4795 86.8309 86.6347C87.1037 86.8897 87.4451 87.0072 87.7899 87.0438C87.8509 87.0527 87.8963 87.0804 87.9628 87.0804C87.975 87.0804 87.9872 87.0771 87.9994 87.0771C88.0216 87.0759 88.0427 87.0715 88.0659 87.0704C88.4883 87.046 88.9551 86.8753 89.2566 86.5482C89.3664 86.4307 89.4506 86.2988 89.5238 86.1624ZM57.0732 51.8383V38.3307C57.0732 36.9084 58.6186 35.9173 60.0055 35.9173H60.3991V50.3294C60.3991 50.3804 60.4102 50.4292 60.4146 50.4791C59.1519 50.6997 58.0277 51.1709 57.0732 51.8383ZM63.7249 50.3294V33.1025C63.7249 31.7089 64.94 30.5327 66.3768 30.5327C66.6207 30.5327 66.8679 30.5704 67.1074 30.6336C67.0874 30.8409 67.0508 31.0426 67.0508 31.2577V50.3294H63.7249ZM73.7026 50.3294H70.3767V31.2577C70.3767 30.0227 71.0707 28.6935 72.594 28.6935C74.1172 28.6935 74.8112 30.0238 74.8112 31.2588V34.4384C74.1194 35.4206 73.7026 36.6445 73.7026 38.0226V50.3294ZM85.8975 73.3944V73.3523C88.7422 71.227 90.5914 67.8701 90.5914 64.0875L90.6202 50.9103C90.6202 47.855 87.9883 45.2608 84.7877 45.0535V38.0237C84.7877 34.6645 82.4053 32.1324 79.2446 32.1324C78.8621 32.1324 78.493 32.1734 78.136 32.2444V31.2599C78.136 27.9008 75.7535 25.3687 72.5929 25.3687C70.8002 25.3687 69.2781 26.2013 68.277 27.5194C67.6639 27.3221 67.0187 27.2068 66.3746 27.2068C63.2549 27.2068 60.715 29.5859 60.449 32.5969C60.4334 32.5958 60.4168 32.5914 60.3991 32.5914H60.0055C56.6131 32.5914 53.7473 35.2199 53.7473 38.3307V62.8547C53.7473 69.5996 58.8847 75.1505 65.4178 75.7513C65.5109 82.4774 66.2726 89.4706 69.9743 95.956C64.113 98.4039 57.8692 99.6422 51.4347 99.6422C46.2641 99.6422 41.1533 98.834 36.3086 97.2365C41.1079 90.2887 41.7076 82.8787 41.7464 77.0628C41.7509 76.3289 41.6012 75.7258 41.5657 75.095C42.6622 74.8578 43.8251 74.544 44.773 73.8168C48.2685 71.1361 50.1931 67.6473 50.1931 63.9932L50.2052 50.7873C50.2052 47.7596 47.8705 45.2597 44.8783 44.9337V37.7576C44.8783 36.894 44.7885 35.6124 44.0102 34.4594C42.8484 32.7377 41.2985 31.8652 39.4039 31.8652C38.997 31.8652 38.6046 31.9085 38.2265 31.9861V31.1058C38.2265 30.2422 38.1367 28.9606 37.3585 27.8077C36.1966 26.086 34.6468 25.2135 32.7521 25.2135C30.914 25.2135 29.3542 26.0671 28.3431 27.4163C27.7478 27.2312 27.1381 27.1214 26.5461 27.1214C23.331 27.1214 20.6992 29.546 20.5063 32.5936C20.5007 32.5925 20.4952 32.5914 20.4885 32.5914H19.5684C16.2469 32.5914 13.8368 34.9406 13.8368 38.1767V62.7017C13.8368 67.7648 16.7369 72.3478 21.1604 74.4742C21.0495 78.0817 20.279 81.7634 16.8855 84.964C8.13621 75.9354 3.32588 64.1119 3.32588 51.4835C3.32588 24.9286 24.9297 3.32588 51.4846 3.32588C78.0384 3.32588 99.6422 24.9297 99.6422 51.4835C99.6422 63.0609 95.5226 74.125 88.015 82.8565C85.78 79.9763 85.8975 76.891 85.8975 73.3944Z" fill="#2265C9"/>
<path d="M61.3901 17.3433L55.5931 22.6236C54.9146 23.2423 54.8647 24.2932 55.4822 24.9728C55.8115 25.3331 56.2605 25.5161 56.7117 25.5161C57.1119 25.5161 57.5132 25.373 57.8314 25.0826L63.6284 19.8022C64.3069 19.1836 64.3568 18.1326 63.7393 17.453C63.1173 16.7723 62.0664 16.7258 61.3901 17.3433Z" fill="#2265C9"/>
<path d="M51.1023 11.5275C51.1001 11.5275 51.0979 11.5275 51.0956 11.5275C50.1799 11.5275 49.436 12.3246 49.4327 13.2403L49.3994 21.1393C49.395 22.0572 50.1367 22.6137 51.0546 22.6137C51.0568 22.6137 51.059 22.6137 51.0613 22.6137C51.977 22.6137 52.7209 21.9918 52.7242 21.0761L52.7575 13.3534C52.7619 12.4343 52.0202 11.5275 51.1023 11.5275Z" fill="#2265C9"/>
<path d="M40.769 17.2545C40.095 16.6292 39.0418 16.6702 38.4187 17.3443C37.7946 18.0172 37.8345 19.0704 38.5085 19.6946L44.2601 25.0248C44.5805 25.322 44.9851 25.4683 45.3898 25.4683C45.8365 25.4683 46.2822 25.2887 46.6104 24.9362C47.2345 24.2632 47.1946 23.21 46.5206 22.5859L40.769 17.2545Z" fill="#2265C9"/>
</svg>
