<svg width="25" height="24" viewBox="0 0 25 24" fill="none" xmlns="http://www.w3.org/2000/svg">
<path d="M9.22223 19V13C9.22223 12.4696 9.01151 11.9609 8.63644 11.5858C8.26137 11.2107 7.75266 11 7.22223 11H5.22223C4.6918 11 4.18309 11.2107 3.80802 11.5858C3.43294 11.9609 3.22223 12.4696 3.22223 13V19C3.22223 19.5304 3.43294 20.0391 3.80802 20.4142C4.18309 20.7893 4.6918 21 5.22223 21H7.22223C7.75266 21 8.26137 20.7893 8.63644 20.4142C9.01151 20.0391 9.22223 19.5304 9.22223 19ZM9.22223 19V9C9.22223 8.46957 9.43294 7.96086 9.80802 7.58579C10.1831 7.21071 10.6918 7 11.2222 7H13.2222C13.7527 7 14.2614 7.21071 14.6364 7.58579C15.0115 7.96086 15.2222 8.46957 15.2222 9V19M9.22223 19C9.22223 19.5304 9.43294 20.0391 9.80802 20.4142C10.1831 20.7893 10.6918 21 11.2222 21H13.2222C13.7527 21 14.2614 20.7893 14.6364 20.4142C15.0115 20.0391 15.2222 19.5304 15.2222 19M15.2222 19V5C15.2222 4.46957 15.4329 3.96086 15.808 3.58579C16.1831 3.21071 16.6918 3 17.2222 3H19.2222C19.7527 3 20.2614 3.21071 20.6364 3.58579C21.0115 3.96086 21.2222 4.46957 21.2222 5V13M15.2222 19C15.2222 19.5304 15.4329 20.0391 15.808 20.4142C16.1831 20.7893 16.6918 21 17.2222 21H19.2222C19.7527 21 20.2614 20.7893 20.6364 20.4142C21.0115 20.0391 21.2222 19.5304 21.2222 19" stroke="black" stroke-linecap="round" stroke-linejoin="round"/>
<path d="M22.0945 16.0037C22.0945 16.4855 21.704 16.876 21.2222 16.876C20.7405 16.876 20.3499 16.4855 20.3499 16.0037C20.3499 15.5219 20.7405 15.1314 21.2222 15.1314C21.704 15.1314 22.0945 15.5219 22.0945 16.0037Z" fill="black"/>
</svg>
