<svg width="24" height="24" viewBox="0 0 24 24" fill="none" xmlns="http://www.w3.org/2000/svg">
<g clip-path="url(#clip0_2944_13186)">
<rect width="24" height="24" rx="12" fill="#D2D6DB"/>
<path d="M17.1429 11.7551C17.1429 14.5954 14.8403 16.898 12 16.898C9.15968 16.898 6.85714 14.5954 6.85714 11.7551C6.85714 8.91478 9.15968 6.61224 12 6.61224C14.8403 6.61224 17.1429 8.91478 17.1429 11.7551Z" fill="#FAFAFA"/>
<path d="M22.0408 24.9796C22.0408 23.661 21.7811 22.3553 21.2765 21.1371C20.7719 19.9189 20.0323 18.812 19.0999 17.8797C18.1676 16.9473 17.0607 16.2077 15.8425 15.7031C14.6242 15.1985 13.3186 14.9388 12 14.9388C10.6814 14.9388 9.37575 15.1985 8.15754 15.7031C6.93934 16.2077 5.83245 16.9473 4.90007 17.8797C3.96769 18.812 3.22809 19.9189 2.72349 21.1371C2.2189 22.3553 1.95918 23.661 1.95918 24.9796H22.0408Z" fill="#FAFAFA"/>
<path d="M13.3967 12.6171C13.4895 12.5186 13.4849 12.3637 13.3865 12.2709C13.2881 12.1781 13.1331 12.1826 13.0403 12.281L13.3967 12.6171ZM10.9815 12.281C10.8887 12.1826 10.7337 12.1781 10.6353 12.2709C10.5369 12.3637 10.5323 12.5186 10.6251 12.6171L10.9815 12.281ZM10.5306 10.6836C10.5306 10.8188 10.6403 10.9285 10.7755 10.9285C10.9108 10.9285 11.0204 10.8188 11.0204 10.6836H10.5306ZM11.0204 9.55103C11.0204 9.41577 10.9108 9.30613 10.7755 9.30613C10.6403 9.30613 10.5306 9.41577 10.5306 9.55103H11.0204ZM12.9796 10.6836C12.9796 10.8188 13.0892 10.9285 13.2245 10.9285C13.3597 10.9285 13.4694 10.8188 13.4694 10.6836H12.9796ZM13.4694 9.55103C13.4694 9.41577 13.3597 9.30613 13.2245 9.30613C13.0892 9.30613 12.9796 9.41577 12.9796 9.55103H13.4694ZM13.0403 12.281C12.7647 12.5734 12.3941 12.7347 12.0109 12.7347V13.2245C12.5336 13.2245 13.0317 13.0041 13.3967 12.6171L13.0403 12.281ZM12.0109 12.7347C11.6278 12.7347 11.2571 12.5734 10.9815 12.281L10.6251 12.6171C10.9901 13.0041 11.4882 13.2245 12.0109 13.2245V12.7347ZM11.0204 10.6836V9.55103H10.5306V10.6836H11.0204ZM13.4694 10.6836V9.55103H12.9796V10.6836H13.4694Z" fill="#828F9B"/>
</g>
<defs>
<clipPath id="clip0_2944_13186">
<rect width="24" height="24" rx="12" fill="white"/>
</clipPath>
</defs>
</svg>
