<svg width="48" height="48" viewBox="0 0 48 48" fill="none" xmlns="http://www.w3.org/2000/svg">
<circle cx="24" cy="24" r="16" fill="white"/>
<path fill-rule="evenodd" clip-rule="evenodd" d="M24 43.2C29.0921 43.2 33.9757 41.1772 37.5764 37.5765C41.1771 33.9758 43.2 29.0922 43.2 24C43.2 18.9078 41.1771 14.0243 37.5764 10.4236C33.9757 6.82285 29.0921 4.8 24 4.8C18.9078 4.8 14.0242 6.82285 10.4235 10.4236C6.82284 14.0243 4.79999 18.9078 4.79999 24C4.79999 29.0922 6.82284 33.9758 10.4235 37.5765C14.0242 41.1772 18.9078 43.2 24 43.2ZM20.8968 17.5032C20.4441 17.066 19.8379 16.8241 19.2086 16.8296C18.5794 16.8351 17.9774 17.0875 17.5324 17.5324C17.0874 17.9774 16.835 18.5794 16.8296 19.2086C16.8241 19.8379 17.066 20.4442 17.5032 20.8968L20.6064 24L17.5032 27.1032C17.274 27.3246 17.0911 27.5894 16.9653 27.8822C16.8396 28.175 16.7734 28.49 16.7706 28.8086C16.7678 29.1273 16.8285 29.4433 16.9492 29.7383C17.0699 30.0332 17.2481 30.3012 17.4734 30.5266C17.6988 30.7519 17.9667 30.9301 18.2617 31.0508C18.5567 31.1714 18.8727 31.2322 19.1914 31.2294C19.51 31.2266 19.8249 31.1604 20.1178 31.0346C20.4106 30.9089 20.6754 30.726 20.8968 30.4968L24 27.3936L27.1032 30.4968C27.5558 30.934 28.1621 31.1759 28.7914 31.1704C29.4206 31.165 30.0226 30.9125 30.4676 30.4676C30.9125 30.0226 31.1649 29.4206 31.1704 28.7914C31.1759 28.1621 30.934 27.5558 30.4968 27.1032L27.3936 24L30.4968 20.8968C30.934 20.4442 31.1759 19.8379 31.1704 19.2086C31.1649 18.5794 30.9125 17.9774 30.4676 17.5324C30.0226 17.0875 29.4206 16.8351 28.7914 16.8296C28.1621 16.8241 27.5558 17.066 27.1032 17.5032L24 20.6064L20.8968 17.5032Z" fill="black"/>
</svg>
