<svg width="110" height="110" viewBox="0 0 110 110" fill="none" xmlns="http://www.w3.org/2000/svg">
<circle cx="55" cy="55" r="36.6667" fill="white"/>
<path fill-rule="evenodd" clip-rule="evenodd" d="M99 55C99 66.6695 94.3643 77.8611 86.1127 86.1127C77.8611 94.3643 66.6695 99 55 99C43.3305 99 32.1389 94.3643 23.8873 86.1127C15.6357 77.8611 11 66.6695 11 55C11 43.3305 15.6357 32.1389 23.8873 23.8873C32.1389 15.6357 43.3305 11 55 11C66.6695 11 77.8611 15.6357 86.1127 23.8873C94.3643 32.1389 99 43.3305 99 55ZM38.5 44C38.5 42.5413 39.0795 41.1424 40.1109 40.1109C41.1424 39.0795 42.5413 38.5 44 38.5C45.4587 38.5 46.8576 39.0795 47.8891 40.1109C48.9205 41.1424 49.5 42.5413 49.5 44V66C49.5 67.4587 48.9205 68.8576 47.8891 69.8891C46.8576 70.9205 45.4587 71.5 44 71.5C42.5413 71.5 41.1424 70.9205 40.1109 69.8891C39.0795 68.8576 38.5 67.4587 38.5 66V44ZM66 38.5C64.5413 38.5 63.1424 39.0795 62.1109 40.1109C61.0795 41.1424 60.5 42.5413 60.5 44V66C60.5 67.4587 61.0795 68.8576 62.1109 69.8891C63.1424 70.9205 64.5413 71.5 66 71.5C67.4587 71.5 68.8576 70.9205 69.8891 69.8891C70.9205 68.8576 71.5 67.4587 71.5 66V44C71.5 42.5413 70.9205 41.1424 69.8891 40.1109C68.8576 39.0795 67.4587 38.5 66 38.5Z" fill="#2265C9"/>
</svg>
