<svg width="110" height="110" viewBox="0 0 110 110" fill="none" xmlns="http://www.w3.org/2000/svg">
<circle cx="55" cy="55" r="36.6667" fill="white"/>
<path fill-rule="evenodd" clip-rule="evenodd" d="M55 99C66.6695 99 77.8611 94.3643 86.1127 86.1127C94.3643 77.8611 99 66.6695 99 55C99 43.3305 94.3643 32.1389 86.1127 23.8873C77.8611 15.6357 66.6695 11 55 11C43.3305 11 32.1389 15.6357 23.8873 23.8873C15.6357 32.1389 11 43.3305 11 55C11 66.6695 15.6357 77.8611 23.8873 86.1127C32.1389 94.3643 43.3305 99 55 99ZM52.5525 39.424C51.7242 38.8714 50.7614 38.554 49.7668 38.5057C48.7723 38.4573 47.7833 38.6799 46.9053 39.1497C46.0273 39.6194 45.2934 40.3187 44.7817 41.173C44.27 42.0272 43.9999 43.0043 44 44V66C43.9999 66.9957 44.27 67.9728 44.7817 68.8271C45.2934 69.6813 46.0273 70.3806 46.9053 70.8503C47.7833 71.3201 48.7723 71.5427 49.7668 71.4944C50.7614 71.446 51.7242 71.1286 52.5525 70.576L69.0525 59.576C69.8058 59.0737 70.4234 58.3933 70.8506 57.595C71.2777 56.7967 71.5012 55.9054 71.5012 55C71.5012 54.0946 71.2777 53.2033 70.8506 52.405C70.4234 51.6067 69.8058 50.9263 69.0525 50.424L52.5525 39.424Z" fill="#2265C9"/>
</svg>
