<svg width="24" height="24" viewBox="0 0 24 24" fill="none" xmlns="http://www.w3.org/2000/svg">
<g clip-path="url(#clip0_2371_5942)">
<circle cx="19.5767" cy="18.4837" r="0.5" fill="black"/>
<path d="M20.1094 16.9825C20.394 16.1292 20.3827 15.2047 20.0773 14.3586C19.7718 13.5124 19.19 12.7939 18.4259 12.3191L14.3426 9.78099C13.998 9.5667 13.7004 9.28471 13.4679 8.95209C13.2354 8.61947 13.0728 8.24314 12.9899 7.84586L12.5582 5.7797C12.5225 5.60876 12.4426 5.45014 12.3266 5.31964C12.2105 5.18914 12.0623 5.09131 11.8967 5.03588L6.75014 3.31711C6.49858 3.2331 6.22395 3.25246 5.98666 3.37094C5.74938 3.48941 5.56888 3.6973 5.48487 3.94885L2.31723 13.4339C2.23322 13.6855 2.25258 13.9601 2.37105 14.1974C2.48953 14.4347 2.69741 14.6152 2.94897 14.6992L18.125 19.7674C18.3766 19.8514 18.6512 19.832 18.8885 19.7136M14.0178 13.1243L15.5999 11.544M6.74298 15.9662L7.05975 15.0177C7.39579 14.0115 7.31835 12.913 6.84445 11.9638C6.37055 11.0147 5.53902 10.2927 4.53279 9.95664L3.58428 9.63988M10.5406 10.9087L12.9136 8.53836M2.00085 19.8329L18.5272 19.8329M2.00085 18.0003L6.00085 18.0003" stroke="black" stroke-linecap="round" stroke-linejoin="round"/>
</g>
<defs>
<clipPath id="clip0_2371_5942">
<rect width="24" height="24" fill="white"/>
</clipPath>
</defs>
</svg>
