<svg width="48" height="48" viewBox="0 0 48 48" fill="none" xmlns="http://www.w3.org/2000/svg">
<circle cx="24" cy="24" r="16" fill="white"/>
<path fill-rule="evenodd" clip-rule="evenodd" d="M43.2 24C43.2 29.0922 41.1771 33.9758 37.5764 37.5765C33.9757 41.1772 29.0921 43.2 24 43.2C18.9078 43.2 14.0242 41.1772 10.4235 37.5765C6.82284 33.9758 4.79999 29.0922 4.79999 24C4.79999 18.9078 6.82284 14.0243 10.4235 10.4236C14.0242 6.82285 18.9078 4.8 24 4.8C29.0921 4.8 33.9757 6.82285 37.5764 10.4236C41.1771 14.0243 43.2 18.9078 43.2 24ZM16.8 19.2C16.8 18.5635 17.0528 17.953 17.5029 17.5029C17.953 17.0529 18.5635 16.8 19.2 16.8C19.8365 16.8 20.447 17.0529 20.897 17.5029C21.3471 17.953 21.6 18.5635 21.6 19.2V28.8C21.6 29.4365 21.3471 30.047 20.897 30.4971C20.447 30.9471 19.8365 31.2 19.2 31.2C18.5635 31.2 17.953 30.9471 17.5029 30.4971C17.0528 30.047 16.8 29.4365 16.8 28.8V19.2ZM28.8 16.8C28.1635 16.8 27.553 17.0529 27.1029 17.5029C26.6528 17.953 26.4 18.5635 26.4 19.2V28.8C26.4 29.4365 26.6528 30.047 27.1029 30.4971C27.553 30.9471 28.1635 31.2 28.8 31.2C29.4365 31.2 30.047 30.9471 30.497 30.4971C30.9471 30.047 31.2 29.4365 31.2 28.8V19.2C31.2 18.5635 30.9471 17.953 30.497 17.5029C30.047 17.0529 29.4365 16.8 28.8 16.8Z" fill="#0A0A0B"/>
</svg>
