<svg width="24" height="25" viewBox="0 0 24 25" fill="none" xmlns="http://www.w3.org/2000/svg">
<path d="M5.24943 11.125C5.89756 11.1243 6.52562 10.9 7.0277 10.4902C7.52979 10.0803 7.87519 9.50986 8.00568 8.875L17.2494 8.875C18.0948 8.875 18.9056 9.21082 19.5033 9.8086C20.1011 10.4064 20.4369 11.2171 20.4369 12.0625C20.4369 12.9079 20.1011 13.7186 19.5033 14.3164C18.9056 14.9142 18.0948 15.25 17.2494 15.25L8.24943 15.25C7.30459 15.25 6.39846 15.6253 5.73036 16.2934C5.06226 16.9615 4.68693 17.8677 4.68693 18.8125C4.68693 19.7573 5.06226 20.6635 5.73036 21.3316C6.39846 21.9997 7.30459 22.375 8.24943 22.375L17.2494 22.375C17.3986 22.375 17.5417 22.3157 17.6472 22.2102C17.7527 22.1048 17.8119 21.9617 17.8119 21.8125C17.8119 21.6633 17.7527 21.5202 17.6472 21.4148C17.5417 21.3093 17.3986 21.25 17.2494 21.25L8.24943 21.25C7.60296 21.25 6.98297 20.9932 6.52585 20.5361C6.06873 20.079 5.81193 19.459 5.81193 18.8125C5.81193 18.166 6.06873 17.546 6.52585 17.0889C6.98297 16.6318 7.60296 16.375 8.24943 16.375L17.2494 16.375C18.3932 16.375 19.4901 15.9206 20.2988 15.1119C21.1076 14.3031 21.5619 13.2062 21.5619 12.0625C21.5619 10.9188 21.1076 9.82185 20.2988 9.0131C19.4901 8.20435 18.3932 7.75 17.2494 7.75L8.00568 7.75C7.89925 7.22861 7.64709 6.74811 7.27848 6.36431C6.90987 5.98051 6.43994 5.70916 5.92327 5.58177C5.4066 5.45439 4.86439 5.47619 4.35962 5.64466C3.85485 5.81312 3.40823 6.12133 3.07163 6.53349C2.73503 6.94566 2.52227 7.44485 2.45806 7.9731C2.39384 8.50136 2.48081 9.03699 2.70886 9.51779C2.9369 9.99859 3.29668 10.4048 3.74639 10.6893C4.1961 10.9738 4.71729 11.1249 5.24943 11.125ZM5.24943 6.625C5.58318 6.625 5.90945 6.72397 6.18695 6.90939C6.46446 7.09482 6.68075 7.35837 6.80848 7.66672C6.9362 7.97507 6.96962 8.31437 6.9045 8.64171C6.83939 8.96906 6.67867 9.26974 6.44267 9.50574C6.20667 9.74174 5.90599 9.90246 5.57864 9.96757C5.2513 10.0327 4.912 9.99927 4.60365 9.87155C4.2953 9.74382 4.03175 9.52753 3.84632 9.25002C3.6609 8.97252 3.56193 8.64625 3.56193 8.3125C3.56193 7.86495 3.73972 7.43572 4.05619 7.11926C4.37265 6.80279 4.80188 6.625 5.24943 6.625Z" fill="black"/>
<circle cx="19.4056" cy="21.7812" r="0.593826" transform="rotate(-180 19.4056 21.7812)" fill="black"/>
</svg>
