<svg width="98" height="98" viewBox="0 0 98 98" fill="none" xmlns="http://www.w3.org/2000/svg">
<g clip-path="url(#clip0_2944_13184)">
<rect width="98" height="98" rx="24" fill="#D2D6DB"/>
<path d="M70 48C70 59.598 60.598 69 49 69C37.402 69 28 59.598 28 48C28 36.402 37.402 27 49 27C60.598 27 70 36.402 70 48Z" fill="#FAFAFA"/>
<path d="M90 102C90 96.6158 88.9395 91.2843 86.8791 86.31C84.8186 81.3356 81.7986 76.8158 77.9914 73.0086C74.1842 69.2014 69.6644 66.1814 64.69 64.1209C59.7157 62.0605 54.3842 61 49 61C43.6158 61 38.2843 62.0605 33.31 64.1209C28.3356 66.1814 23.8158 69.2014 20.0086 73.0086C16.2014 76.8158 13.1814 81.3356 11.1209 86.31C9.0605 91.2843 8 96.6158 8 102H90Z" fill="#FAFAFA"/>
<path d="M54.7032 51.5196C55.0821 51.1178 55.0635 50.4849 54.6617 50.106C54.2598 49.7271 53.6269 49.7457 53.2481 50.1476L54.7032 51.5196ZM44.8411 50.1476C44.4622 49.7457 43.8293 49.7271 43.4275 50.106C43.0256 50.4849 43.007 51.1178 43.3859 51.5196L44.8411 50.1476ZM43 43.6245C43 44.1768 43.4477 44.6245 44 44.6245C44.5523 44.6245 45 44.1768 45 43.6245H43ZM45 39C45 38.4477 44.5523 38 44 38C43.4477 38 43 38.4477 43 39H45ZM53 43.6245C53 44.1768 53.4477 44.6245 54 44.6245C54.5523 44.6245 55 44.1768 55 43.6245H53ZM55 39C55 38.4477 54.5523 38 54 38C53.4477 38 53 38.4477 53 39H55ZM53.2481 50.1476C52.1225 51.3413 50.6091 52 49.0446 52V54C51.1789 54 53.2129 53.1002 54.7032 51.5196L53.2481 50.1476ZM49.0446 52C47.48 52 45.9667 51.3413 44.8411 50.1476L43.3859 51.5196C44.8762 53.1002 46.9103 54 49.0446 54V52ZM45 43.6245V39H43V43.6245H45ZM55 43.6245V39H53V43.6245H55Z" fill="#828F9B"/>
</g>
<defs>
<clipPath id="clip0_2944_13184">
<rect width="98" height="98" rx="24" fill="white"/>
</clipPath>
</defs>
</svg>
