<svg width="25" height="24" viewBox="0 0 25 24" fill="none" xmlns="http://www.w3.org/2000/svg">
<path d="M19.3333 21H5.33334C5.33334 19.1435 6.07084 17.363 7.3836 16.0503C8.69635 14.7375 10.4768 14 12.3333 14C14.1899 14 15.9703 14.7375 17.2831 16.0503M16.3333 7C16.3333 8.06087 15.9119 9.07828 15.1618 9.82843C14.4116 10.5786 13.3942 11 12.3333 11C11.2725 11 10.2551 10.5786 9.50492 9.82843C8.75477 9.07828 8.33334 8.06087 8.33334 7C8.33334 5.93913 8.75477 4.92172 9.50492 4.17157C10.2551 3.42143 11.2725 3 12.3333 3C13.3942 3 14.4116 3.42143 15.1618 4.17157C15.9119 4.92172 16.3333 5.93913 16.3333 7Z" stroke="black" stroke-linecap="round" stroke-linejoin="round"/>
<path d="M19.7737 18.2686C19.7737 18.7504 19.3831 19.1409 18.9013 19.1409C18.4196 19.1409 18.029 18.7504 18.029 18.2686C18.029 17.7868 18.4196 17.3963 18.9013 17.3963C19.3831 17.3963 19.7737 17.7868 19.7737 18.2686Z" fill="black"/>
</svg>
