<svg width="24" height="24" viewBox="0 0 24 24" fill="none" xmlns="http://www.w3.org/2000/svg">
<path d="M19.8723 16.3191C19.8723 16.8009 19.4818 17.1914 19 17.1914C18.5182 17.1914 18.1277 16.8009 18.1277 16.3191C18.1277 15.8373 18.5182 15.4468 19 15.4468C19.4818 15.4468 19.8723 15.8373 19.8723 16.3191Z" fill="#2265C9"/>
<path fill-rule="evenodd" clip-rule="evenodd" d="M5 5C5 4.46957 5.21071 3.96086 5.58579 3.58579C5.96086 3.21071 6.46957 3 7 3H17C17.5304 3 18.0391 3.21071 18.4142 3.58579C18.7893 3.96086 19 4.46957 19 5L19 14.4491C17.9672 14.4491 17.13 15.2863 17.13 16.3191C17.13 17.3519 17.9672 18.1891 19 18.1891L19 21L12 17.5L5 21V5Z" fill="#2265C9"/>
</svg>
