<svg width="48" height="48" viewBox="0 0 48 48" fill="none" xmlns="http://www.w3.org/2000/svg">
<circle cx="24" cy="24" r="16" fill="white"/>
<path fill-rule="evenodd" clip-rule="evenodd" d="M24 43.2C29.0921 43.2 33.9757 41.1772 37.5764 37.5765C41.1771 33.9758 43.2 29.0922 43.2 24C43.2 18.9078 41.1771 14.0243 37.5764 10.4236C33.9757 6.82285 29.0921 4.8 24 4.8C18.9078 4.8 14.0242 6.82285 10.4235 10.4236C6.82284 14.0243 4.79999 18.9078 4.79999 24C4.79999 29.0922 6.82284 33.9758 10.4235 37.5765C14.0242 41.1772 18.9078 43.2 24 43.2ZM22.932 17.2032C22.5705 16.9621 22.1504 16.8236 21.7164 16.8025C21.2824 16.7814 20.8509 16.8785 20.4678 17.0835C20.0846 17.2885 19.7644 17.5936 19.5411 17.9664C19.3178 18.3391 19.1999 18.7655 19.2 19.2V28.8C19.1999 29.2345 19.3178 29.6609 19.5411 30.0336C19.7644 30.4064 20.0846 30.7115 20.4678 30.9165C20.8509 31.1215 21.2824 31.2186 21.7164 31.1975C22.1504 31.1765 22.5705 31.038 22.932 30.7968L30.132 25.9968C30.4607 25.7776 30.7302 25.4807 30.9166 25.1324C31.103 24.784 31.2005 24.3951 31.2005 24C31.2005 23.6049 31.103 23.216 30.9166 22.8676C30.7302 22.5193 30.4607 22.2224 30.132 22.0032L22.932 17.2032Z" fill="#0A0A0B"/>
</svg>
