<svg width="24" height="24" viewBox="0 0 24 24" fill="none" xmlns="http://www.w3.org/2000/svg">
<path d="M19.4164 17.7105C19.4164 18.1923 19.0258 18.5828 18.544 18.5828C18.0623 18.5828 17.6717 18.1923 17.6717 17.7105C17.6717 17.2288 18.0623 16.8382 18.544 16.8382C19.0258 16.8382 19.4164 17.2288 19.4164 17.7105Z" fill="#2265C9"/>
<path fill-rule="evenodd" clip-rule="evenodd" d="M14 10H18.764C19.1049 10 19.4401 10.0871 19.7378 10.2531C20.0355 10.4191 20.2859 10.6584 20.4651 10.9484C20.6444 11.2383 20.7465 11.5692 20.7619 11.9098C20.7773 12.2503 20.7054 12.5891 20.553 12.894L19.0457 15.9086C18.8861 15.8642 18.7178 15.8405 18.544 15.8405C17.5113 15.8405 16.674 16.6778 16.674 17.7105C16.674 18.314 16.9599 18.8508 17.4037 19.1927L17.053 19.894C16.8869 20.2265 16.6314 20.5061 16.3152 20.7014C15.999 20.8968 15.6347 21.0002 15.263 21H11.246C11.083 21 10.92 20.98 10.761 20.94L7 20H5C4.46957 20 3.96086 19.7893 3.58579 19.4142C3.21071 19.0391 3 18.5304 3 18V12C3 11.4696 3.21071 10.9609 3.58579 10.5858C3.96086 10.2107 4.46957 10 5 10H7V11L10.392 5.911C10.789 5.317 11 4.619 11 3.905C11 3.405 11.405 3 11.905 3H12C12.5304 3 13.0391 3.21071 13.4142 3.58579C13.7893 3.96086 14 4.46957 14 5V10Z" fill="#2265C9"/>
</svg>
