<svg width="24" height="24" viewBox="0 0 24 24" fill="none" xmlns="http://www.w3.org/2000/svg">
<path d="M10.325 4.317L10.8108 4.43514L10.8109 4.43488L10.325 4.317ZM13.675 4.317L14.1609 4.19926L14.1609 4.19912L13.675 4.317ZM16.248 5.383L15.9879 4.956L15.9877 4.95609L16.248 5.383ZM18.618 7.753L19.045 8.0131L19.0451 8.01301L18.618 7.753ZM19.683 10.325L19.5649 10.8108L19.5651 10.8109L19.683 10.325ZM19.683 13.675L19.8007 14.1609L19.8009 14.1609L19.683 13.675ZM18.617 16.248L19.044 15.9879L19.0439 15.9877L18.617 16.248ZM16.247 18.618L15.9869 19.045L15.987 19.0451L16.247 18.618ZM13.675 19.683L13.1892 19.5649L13.1891 19.5651L13.675 19.683ZM10.325 19.683L9.83906 19.8007L9.83909 19.8009L10.325 19.683ZM7.752 18.617L8.01213 19.044L8.01229 19.0439L7.752 18.617ZM5.382 16.247L4.95498 15.9869L4.95492 15.987L5.382 16.247ZM4.317 13.675L4.43515 13.1892L4.43488 13.1891L4.317 13.675ZM4.317 10.325L4.19926 9.83906L4.19912 9.83909L4.317 10.325ZM5.383 7.752L4.956 8.01213L4.95609 8.01229L5.383 7.752ZM7.753 5.382L8.01352 4.95523L8.01301 4.95492L7.753 5.382ZM15 12H15.5H15ZM12 9V8.5V9ZM10.8109 4.43488C11.1133 3.18837 12.8867 3.18837 13.1891 4.43488L14.1609 4.19912C13.6113 1.93363 10.3887 1.93363 9.83909 4.19912L10.8109 4.43488ZM13.1891 4.43474C13.2715 4.77505 13.4332 5.09108 13.6608 5.35711L14.4206 4.70689C14.2953 4.56048 14.2063 4.38655 14.1609 4.19926L13.1891 4.43474ZM13.6608 5.35711C13.8885 5.62314 14.1758 5.83165 14.4993 5.96567L14.882 5.04182C14.704 4.96806 14.5459 4.8533 14.4206 4.70689L13.6608 5.35711ZM14.4993 5.96567C14.8228 6.09969 15.1733 6.15544 15.5224 6.12837L15.4451 5.13137C15.253 5.14626 15.0601 5.11558 14.882 5.04182L14.4993 5.96567ZM15.5224 6.12837C15.8715 6.10131 16.2093 5.99219 16.5083 5.80991L15.9877 4.95609C15.8232 5.05642 15.6373 5.11647 15.4451 5.13137L15.5224 6.12837ZM16.5081 5.81C17.6035 5.14269 18.8584 6.39657 18.1909 7.49299L19.0451 8.01301C20.2576 6.02143 17.9785 3.74331 15.9879 4.956L16.5081 5.81ZM18.191 7.4929C18.009 7.79174 17.9 8.12932 17.873 8.47819L18.87 8.55536C18.8849 8.36336 18.9448 8.17757 19.045 8.0131L18.191 7.4929ZM17.873 8.47819C17.846 8.82706 17.9017 9.17737 18.0356 9.50067L18.9595 9.11809C18.8858 8.94016 18.8552 8.74736 18.87 8.55536L17.873 8.47819ZM18.0356 9.50067C18.1694 9.82396 18.3777 10.1111 18.6434 10.3388L19.294 9.57934C19.1478 9.45405 19.0332 9.29602 18.9595 9.11809L18.0356 9.50067ZM18.6434 10.3388C18.9092 10.5664 19.2248 10.7282 19.5649 10.8108L19.8011 9.83916C19.614 9.79365 19.4403 9.70464 19.294 9.57934L18.6434 10.3388ZM19.5651 10.8109C20.8116 11.1133 20.8116 12.8867 19.5651 13.1891L19.8009 14.1609C22.0664 13.6113 22.0664 10.3887 19.8009 9.83909L19.5651 10.8109ZM19.5653 13.1891C19.225 13.2715 18.9089 13.4332 18.6429 13.6608L19.2931 14.4206C19.4395 14.2953 19.6135 14.2063 19.8007 14.1609L19.5653 13.1891ZM18.6429 13.6608C18.3769 13.8885 18.1684 14.1758 18.0343 14.4993L18.9582 14.882C19.0319 14.704 19.1467 14.5459 19.2931 14.4206L18.6429 13.6608ZM18.0343 14.4993C17.9003 14.8228 17.8446 15.1733 17.8716 15.5224L18.8686 15.4451C18.8537 15.253 18.8844 15.0601 18.9582 14.882L18.0343 14.4993ZM17.8716 15.5224C17.8987 15.8715 18.0078 16.2093 18.1901 16.5083L19.0439 15.9877C18.9436 15.8232 18.8835 15.6373 18.8686 15.4451L17.8716 15.5224ZM18.19 16.5081C18.8573 17.6035 17.6034 18.8584 16.507 18.1909L15.987 19.0451C17.9786 20.2576 20.2567 17.9785 19.044 15.9879L18.19 16.5081ZM16.5071 18.191C16.2083 18.009 15.8707 17.9 15.5218 17.873L15.4446 18.87C15.6366 18.8849 15.8224 18.9448 15.9869 19.045L16.5071 18.191ZM15.5218 17.873C15.1729 17.846 14.8226 17.9017 14.4993 18.0356L14.8819 18.9595C15.0598 18.8858 15.2526 18.8552 15.4446 18.87L15.5218 17.873ZM14.4993 18.0356C14.176 18.1694 13.8889 18.3777 13.6612 18.6434L14.4207 19.294C14.5459 19.1478 14.704 19.0332 14.8819 18.9595L14.4993 18.0356ZM13.6612 18.6434C13.4336 18.9092 13.2718 19.2248 13.1892 19.5649L14.1608 19.8011C14.2063 19.614 14.2954 19.4403 14.4207 19.294L13.6612 18.6434ZM13.1891 19.5651C12.8867 20.8116 11.1133 20.8116 10.8109 19.5651L9.83909 19.8009C10.3887 22.0664 13.6113 22.0664 14.1609 19.8009L13.1891 19.5651ZM10.8109 19.5653C10.7285 19.225 10.5668 18.9089 10.3392 18.6429L9.57941 19.2931C9.70472 19.4395 9.79368 19.6135 9.83906 19.8007L10.8109 19.5653ZM10.3392 18.6429C10.1115 18.3769 9.82421 18.1684 9.50072 18.0343L9.11797 18.9582C9.29601 19.0319 9.45411 19.1467 9.57941 19.2931L10.3392 18.6429ZM9.50072 18.0343C9.17724 17.9003 8.82667 17.8446 8.47756 17.8716L8.55486 18.8686C8.747 18.8537 8.93994 18.8844 9.11797 18.9582L9.50072 18.0343ZM8.47756 17.8716C8.12846 17.8987 7.79067 18.0078 7.49171 18.1901L8.01229 19.0439C8.17683 18.9436 8.36273 18.8835 8.55486 18.8686L8.47756 17.8716ZM7.49187 18.19C6.39648 18.8573 5.14157 17.6034 5.80908 16.507L4.95492 15.987C3.74243 17.9786 6.02152 20.2567 8.01213 19.044L7.49187 18.19ZM5.80902 16.5071C5.99105 16.2083 6.09999 15.8707 6.12699 15.5218L5.12998 15.4446C5.11511 15.6366 5.05516 15.8224 4.95498 15.9869L5.80902 16.5071ZM6.12699 15.5218C6.154 15.1729 6.0983 14.8226 5.96443 14.4993L5.04051 14.8819C5.11418 15.0598 5.14484 15.2526 5.12998 15.4446L6.12699 15.5218ZM5.96443 14.4993C5.83057 14.176 5.62231 13.8889 5.35658 13.6612L4.70597 14.4207C4.85222 14.5459 4.96683 14.704 5.04051 14.8819L5.96443 14.4993ZM5.35658 13.6612C5.09085 13.4336 4.77515 13.2718 4.43515 13.1892L4.19885 14.1608C4.38598 14.2063 4.55972 14.2954 4.70597 14.4207L5.35658 13.6612ZM4.43488 13.1891C3.18837 12.8867 3.18837 11.1133 4.43488 10.8109L4.19912 9.83909C1.93363 10.3887 1.93363 13.6113 4.19912 14.1609L4.43488 13.1891ZM4.43474 10.8109C4.77505 10.7285 5.09108 10.5668 5.35711 10.3392L4.70689 9.57941C4.56048 9.70472 4.38655 9.79368 4.19926 9.83906L4.43474 10.8109ZM5.35711 10.3392C5.62314 10.1115 5.83165 9.82421 5.96567 9.50072L5.04182 9.11797C4.96806 9.29601 4.8533 9.45411 4.70689 9.57941L5.35711 10.3392ZM5.96567 9.50072C6.09969 9.17723 6.15544 8.82667 6.12837 8.47756L5.13137 8.55486C5.14626 8.747 5.11558 8.93994 5.04182 9.11797L5.96567 9.50072ZM6.12837 8.47756C6.10131 8.12846 5.99219 7.79068 5.80991 7.49171L4.95609 8.01229C5.05642 8.17683 5.11647 8.36273 5.13137 8.55486L6.12837 8.47756ZM5.81 7.49187C5.14269 6.39648 6.39657 5.14157 7.49299 5.80908L8.01301 4.95492C6.02143 3.74243 3.74331 6.02152 4.956 8.01213L5.81 7.49187ZM7.49248 5.80877C8.77799 6.59349 10.4549 5.8988 10.8108 4.43514L9.83916 4.19886C9.64308 5.0052 8.72001 5.38651 8.01352 4.95523L7.49248 5.80877ZM14.5 12C14.5 12.663 14.2366 13.2989 13.7678 13.7678L14.4749 14.4749C15.1313 13.8185 15.5 12.9283 15.5 12H14.5ZM13.7678 13.7678C13.2989 14.2366 12.663 14.5 12 14.5V15.5C12.9283 15.5 13.8185 15.1313 14.4749 14.4749L13.7678 13.7678ZM12 14.5C11.337 14.5 10.7011 14.2366 10.2322 13.7678L9.52513 14.4749C10.1815 15.1313 11.0717 15.5 12 15.5V14.5ZM10.2322 13.7678C9.76339 13.2989 9.5 12.663 9.5 12H8.5C8.5 12.9283 8.86875 13.8185 9.52513 14.4749L10.2322 13.7678ZM9.5 12C9.5 11.337 9.76339 10.7011 10.2322 10.2322L9.52513 9.52513C8.86875 10.1815 8.5 11.0717 8.5 12H9.5ZM10.2322 10.2322C10.7011 9.76339 11.337 9.5 12 9.5V8.5C11.0717 8.5 10.1815 8.86875 9.52513 9.52513L10.2322 10.2322ZM12 9.5C12.663 9.5 13.2989 9.76339 13.7678 10.2322L14.4749 9.52513C13.8185 8.86875 12.9283 8.5 12 8.5V9.5ZM13.7678 10.2322C14.2366 10.7011 14.5 11.337 14.5 12H15.5C15.5 11.0717 15.1313 10.1815 14.4749 9.52513L13.7678 10.2322Z" fill="#40474F"/>
</svg>
