<svg width="24" height="25" viewBox="0 0 24 25" fill="none" xmlns="http://www.w3.org/2000/svg">
<path d="M13 16.5H12V12.5H11M12 8.5H12.01M17.6711 19.4885C16.9979 20.0347 16.2481 20.4819 15.4442 20.8149C14.3522 21.2672 13.1819 21.5 12 21.5C10.8181 21.5 9.64778 21.2672 8.55585 20.8149C7.46392 20.3626 6.47177 19.6997 5.63604 18.864C4.80031 18.0282 4.13738 17.0361 3.68508 15.9442C3.23279 14.8522 3 13.6819 3 12.5C3 10.1131 3.94821 7.82387 5.63604 6.13604C7.32387 4.44821 9.61305 3.5 12 3.5C14.3869 3.5 16.6761 4.44821 18.364 6.13604C20.0518 7.82387 21 10.1131 21 12.5C21 13.2841 20.8975 14.0632 20.6965 14.8176" stroke="black" stroke-linecap="round" stroke-linejoin="round"/>
<circle cx="19.4606" cy="17.4296" r="0.872314" fill="black"/>
</svg>
