<svg width="90" height="90" viewBox="0 0 90 90" fill="none" xmlns="http://www.w3.org/2000/svg">
<circle cx="45" cy="45" r="30" fill="white"/>
<path fill-rule="evenodd" clip-rule="evenodd" d="M81 45C81 54.5478 77.2072 63.7045 70.4558 70.4558C63.7045 77.2072 54.5478 81 45 81C35.4522 81 26.2955 77.2072 19.5442 70.4558C12.7928 63.7045 9 54.5478 9 45C9 35.4522 12.7928 26.2955 19.5442 19.5442C26.2955 12.7928 35.4522 9 45 9C54.5478 9 63.7045 12.7928 70.4558 19.5442C77.2072 26.2955 81 35.4522 81 45ZM31.5 36C31.5 34.8065 31.9741 33.6619 32.818 32.818C33.6619 31.9741 34.8065 31.5 36 31.5C37.1935 31.5 38.3381 31.9741 39.182 32.818C40.0259 33.6619 40.5 34.8065 40.5 36V54C40.5 55.1935 40.0259 56.3381 39.182 57.182C38.3381 58.0259 37.1935 58.5 36 58.5C34.8065 58.5 33.6619 58.0259 32.818 57.182C31.9741 56.3381 31.5 55.1935 31.5 54V36ZM54 31.5C52.8065 31.5 51.6619 31.9741 50.818 32.818C49.9741 33.6619 49.5 34.8065 49.5 36V54C49.5 55.1935 49.9741 56.3381 50.818 57.182C51.6619 58.0259 52.8065 58.5 54 58.5C55.1935 58.5 56.3381 58.0259 57.182 57.182C58.0259 56.3381 58.5 55.1935 58.5 54V36C58.5 34.8065 58.0259 33.6619 57.182 32.818C56.3381 31.9741 55.1935 31.5 54 31.5Z" fill="#0A0A0B"/>
</svg>
