<svg width="48" height="48" viewBox="0 0 48 48" fill="none" xmlns="http://www.w3.org/2000/svg">
<circle cx="24" cy="24" r="16" fill="white"/>
<path fill-rule="evenodd" clip-rule="evenodd" d="M24 43.2C29.0921 43.2 33.9757 41.1772 37.5764 37.5765C41.1771 33.9758 43.2 29.0922 43.2 24C43.2 18.9078 41.1771 14.0243 37.5764 10.4236C33.9757 6.82285 29.0921 4.8 24 4.8C18.9078 4.8 14.0242 6.82285 10.4235 10.4236C6.82284 14.0243 4.79999 18.9078 4.79999 24C4.79999 29.0922 6.82284 33.9758 10.4235 37.5765C14.0242 41.1772 18.9078 43.2 24 43.2ZM26.4 16.8C26.4 16.1635 26.1471 15.553 25.697 15.1029C25.247 14.6529 24.6365 14.4 24 14.4C23.3635 14.4 22.753 14.6529 22.3029 15.1029C21.8528 15.553 21.6 16.1635 21.6 16.8V21.6H16.8C16.1635 21.6 15.553 21.8529 15.1029 22.3029C14.6528 22.753 14.4 23.3635 14.4 24C14.4 24.6365 14.6528 25.247 15.1029 25.6971C15.553 26.1471 16.1635 26.4 16.8 26.4H21.6V31.2C21.6 31.8365 21.8528 32.447 22.3029 32.8971C22.753 33.3471 23.3635 33.6 24 33.6C24.6365 33.6 25.247 33.3471 25.697 32.8971C26.1471 32.447 26.4 31.8365 26.4 31.2V26.4H31.2C31.8365 26.4 32.447 26.1471 32.897 25.6971C33.3471 25.247 33.6 24.6365 33.6 24C33.6 23.3635 33.3471 22.753 32.897 22.3029C32.447 21.8529 31.8365 21.6 31.2 21.6H26.4V16.8Z" fill="black"/>
</svg>
