<svg width="24" height="25" viewBox="0 0 24 25" fill="none" xmlns="http://www.w3.org/2000/svg">
<path d="M12 8.5V12.5L15 15.5M20.6474 14.9946C20.8808 14.1853 21 13.3456 21 12.5C21 10.1131 20.0518 7.82387 18.364 6.13604C16.6761 4.44821 14.3869 3.5 12 3.5C9.61305 3.5 7.32387 4.44821 5.63604 6.13604C3.94821 7.82387 3 10.1131 3 12.5C3 13.6819 3.23279 14.8522 3.68508 15.9442C4.13738 17.0361 4.80031 18.0282 5.63604 18.864C6.47177 19.6997 7.46392 20.3626 8.55585 20.8149C9.64778 21.2672 10.8181 21.5 12 21.5C13.1819 21.5 14.3522 21.2672 15.4442 20.8149C16.2623 20.476 17.0245 20.0189 17.7068 19.4594" stroke="black" stroke-linecap="round" stroke-linejoin="round"/>
<path d="M20.3401 17.4575C20.3401 17.9393 19.9495 18.3298 19.4677 18.3298C18.986 18.3298 18.5954 17.9393 18.5954 17.4575C18.5954 16.9757 18.986 16.5852 19.4677 16.5852C19.9495 16.5852 20.3401 16.9757 20.3401 17.4575Z" fill="black"/>
</svg>
