<svg width="20" height="20" viewBox="0 0 20 20" fill="none" xmlns="http://www.w3.org/2000/svg">
<path d="M14.1667 16.6666H18.3334V14.9999C18.3334 14.4804 18.1715 13.9737 17.8702 13.5504C17.5689 13.1272 17.1433 12.8082 16.6524 12.638C16.1615 12.4678 15.6298 12.4548 15.1311 12.6008C14.6325 12.7467 14.1917 13.0444 13.8701 13.4524M14.1667 16.6666H5.83341M14.1667 16.6666V14.9999C14.1667 14.4533 14.0617 13.9308 13.8701 13.4524M13.8701 13.4524C13.5606 12.6791 13.0265 12.0161 12.3367 11.5492C11.6469 11.0822 10.8331 10.8327 10.0001 10.8327C9.1671 10.8327 8.35322 11.0822 7.66342 11.5492C6.97362 12.0161 6.43954 12.6791 6.13008 13.4524M5.83341 16.6666H1.66675V14.9999C1.66679 14.4804 1.82869 13.9737 2.12997 13.5504C2.43124 13.1272 2.8569 12.8082 3.34779 12.638C3.83868 12.4678 4.3704 12.4548 4.86903 12.6008C5.36766 12.7467 5.80844 13.0444 6.13008 13.4524M5.83341 16.6666V14.9999C5.83341 14.4533 5.93841 13.9308 6.13008 13.4524M12.5001 5.83325C12.5001 6.49629 12.2367 7.13218 11.7678 7.60102C11.299 8.06986 10.6631 8.33325 10.0001 8.33325C9.33704 8.33325 8.70115 8.06986 8.23231 7.60102C7.76347 7.13218 7.50008 6.49629 7.50008 5.83325C7.50008 5.17021 7.76347 4.53433 8.23231 4.06549C8.70115 3.59664 9.33704 3.33325 10.0001 3.33325C10.6631 3.33325 11.299 3.59664 11.7678 4.06549C12.2367 4.53433 12.5001 5.17021 12.5001 5.83325ZM17.5001 8.33325C17.5001 8.77528 17.3245 9.1992 17.0119 9.51176C16.6994 9.82432 16.2754 9.99992 15.8334 9.99992C15.3914 9.99992 14.9675 9.82432 14.6549 9.51176C14.3423 9.1992 14.1667 8.77528 14.1667 8.33325C14.1667 7.89122 14.3423 7.4673 14.6549 7.15474C14.9675 6.84218 15.3914 6.66659 15.8334 6.66659C16.2754 6.66659 16.6994 6.84218 17.0119 7.15474C17.3245 7.4673 17.5001 7.89122 17.5001 8.33325ZM5.83341 8.33325C5.83341 8.77528 5.65782 9.1992 5.34526 9.51176C5.0327 9.82432 4.60878 9.99992 4.16675 9.99992C3.72472 9.99992 3.3008 9.82432 2.98824 9.51176C2.67568 9.1992 2.50008 8.77528 2.50008 8.33325C2.50008 7.89122 2.67568 7.4673 2.98824 7.15474C3.3008 6.84218 3.72472 6.66659 4.16675 6.66659C4.60878 6.66659 5.0327 6.84218 5.34526 7.15474C5.65782 7.4673 5.83341 7.89122 5.83341 8.33325Z" stroke="black" stroke-linecap="round" stroke-linejoin="round"/>
</svg>
