<svg width="25" height="24" viewBox="0 0 25 24" fill="none" xmlns="http://www.w3.org/2000/svg">
<path d="M9.57292 13.342C9.77492 12.938 9.88892 12.482 9.88892 12C9.88892 11.518 9.77492 11.062 9.57292 10.658M9.57292 13.342C9.27062 13.9464 8.77312 14.431 8.16101 14.7174C7.54891 15.0037 6.85805 15.075 6.20036 14.9197C5.54268 14.7644 4.95669 14.3916 4.53733 13.8617C4.11798 13.3318 3.88982 12.6758 3.88982 12C3.88982 11.3242 4.11798 10.6682 4.53733 10.1383C4.95669 9.60841 5.54268 9.2356 6.20036 9.0803C6.85805 8.92499 7.54891 8.99629 8.16101 9.28264C8.77312 9.56899 9.27062 10.0536 9.57292 10.658M9.57292 13.342L16.2049 16.658M9.57292 10.658L16.2049 7.342M16.2049 16.658C15.849 17.3698 15.7904 18.1939 16.0421 18.9489C16.2938 19.704 16.8351 20.3281 17.5469 20.684C18.2588 21.0399 19.0828 21.0985 19.8379 20.8468C20.5929 20.5951 21.217 20.0538 21.5729 19.342M16.2049 16.658C16.5608 15.9462 17.185 15.4049 17.94 15.1532C18.3138 15.0286 18.7086 14.9788 19.1016 15.0067C19.4947 15.0347 19.8784 15.1398 20.2309 15.316M16.2049 7.342C16.3812 7.6944 16.6251 8.00864 16.9227 8.26678C17.2204 8.52491 17.566 8.72189 17.9398 8.84646C18.3136 8.97103 18.7083 9.02075 19.1013 8.99279C19.4944 8.96483 19.878 8.85973 20.2304 8.6835C20.5828 8.50727 20.8971 8.26335 21.1552 7.96567C21.4133 7.66799 21.6103 7.32239 21.7349 6.94858C21.8594 6.57478 21.9092 6.1801 21.8812 5.78708C21.8532 5.39407 21.7482 5.0104 21.5719 4.658C21.216 3.94629 20.5919 3.40512 19.837 3.15354C19.0821 2.90196 18.2581 2.96058 17.5464 3.3165C16.8347 3.67242 16.2935 4.29649 16.042 5.05142C15.7904 5.80634 15.849 6.63029 16.2049 7.342Z" stroke="black" stroke-linecap="round" stroke-linejoin="round"/>
<path d="M22.7611 17.0067C22.7611 17.4885 22.3705 17.879 21.8888 17.879C21.407 17.879 21.0164 17.4885 21.0164 17.0067C21.0164 16.5249 21.407 16.1344 21.8888 16.1344C22.3705 16.1344 22.7611 16.5249 22.7611 17.0067Z" fill="black"/>
</svg>
