<svg width="292" height="44" viewBox="0 0 292 44" fill="none" xmlns="http://www.w3.org/2000/svg">
<rect width="292" height="44" rx="4" fill="black"/>
<path d="M31.4988 18.8235C30.188 19.6471 29.3783 21.0588 29.3783 22.6275C29.3783 24.3922 30.4193 26 32 26.6667C31.6916 27.6863 31.2289 28.6275 30.6506 29.4902C29.8024 30.7059 28.9157 31.9608 27.6048 31.9608C26.294 31.9608 25.9084 31.1765 24.3663 31.1765C22.8627 31.1765 22.3229 32 21.0892 32C19.8554 32 19.0072 30.8627 18.0434 29.451C16.7711 27.4902 16.0386 25.2157 16 22.8235C16 18.9412 18.4675 16.8627 20.9349 16.8627C22.2458 16.8627 23.3253 17.7255 24.1349 17.7255C24.906 17.7255 26.1398 16.8235 27.6048 16.8235C29.147 16.7843 30.612 17.5294 31.4988 18.8235ZM26.9108 15.1765C27.5663 14.3922 27.9133 13.4118 27.9518 12.3922C27.9518 12.2745 27.9518 12.1176 27.9133 12C26.7952 12.1176 25.7542 12.6667 25.0217 13.5294C24.3663 14.2745 23.9807 15.2157 23.9422 16.2353C23.9422 16.3529 23.9422 16.4706 23.9807 16.5882C24.0578 16.5882 24.1735 16.6275 24.2506 16.6275C25.2916 16.549 26.2554 16 26.9108 15.1765Z" fill="white"/>
<path d="M107.311 27H106.015L109.641 17.0994H110.936L114.562 27H113.266L112.28 24.2155H108.297L107.311 27ZM108.679 23.1326H111.898L110.327 18.6948H110.25L108.679 23.1326ZM115.719 29.7845V19.5746H116.86V20.7541H116.995C117.246 20.3577 117.701 19.4779 119.141 19.4779C121.007 19.4779 122.303 20.9572 122.303 23.3066C122.303 25.6657 121.007 27.1547 119.161 27.1547C117.739 27.1547 117.246 26.2749 116.995 25.8591H116.898V29.7845H115.719ZM116.879 23.2873C116.879 24.9503 117.623 26.1008 118.987 26.1008C120.398 26.1008 121.123 24.8633 121.123 23.2873C121.123 21.7307 120.418 20.5318 118.987 20.5318C117.604 20.5318 116.879 21.634 116.879 23.2873ZM123.81 29.7845V19.5746H124.951V20.7541H125.086C125.338 20.3577 125.792 19.4779 127.233 19.4779C129.099 19.4779 130.395 20.9572 130.395 23.3066C130.395 25.6657 129.099 27.1547 127.252 27.1547C125.831 27.1547 125.338 26.2749 125.086 25.8591H124.99V29.7845H123.81ZM124.97 23.2873C124.97 24.9503 125.715 26.1008 127.078 26.1008C128.49 26.1008 129.215 24.8633 129.215 23.2873C129.215 21.7307 128.509 20.5318 127.078 20.5318C125.696 20.5318 124.97 21.634 124.97 23.2873ZM133.081 17.0994V27H131.902V17.0994H133.081ZM138.058 27.1547C135.911 27.1547 134.587 25.6271 134.587 23.3453C134.587 21.0635 135.931 19.4779 137.942 19.4779C139.508 19.4779 141.152 20.4351 141.152 23.1906V23.6837H135.771C135.824 25.25 136.738 26.1105 138.058 26.1105C138.947 26.1105 139.508 25.7238 139.779 25.2597H141.036C140.687 26.3909 139.585 27.1547 138.058 27.1547ZM135.771 22.6782H139.953C139.953 21.4406 139.17 20.5221 137.951 20.5221C136.661 20.5221 135.848 21.5373 135.771 22.6782ZM153.389 25.6948V26.6036H142.261V25.6948H147.259V23.4033H143.653V19.6519H150.924V17.7472H143.624V16.8577H151.987V20.5318H144.716V22.5138H152.268V23.4033H148.323V25.6948H153.389ZM162.355 19.2265C162.346 21.4406 163.854 23.674 165.643 24.4862L164.985 25.337C163.603 24.6602 162.409 23.2196 161.828 21.489C161.268 23.3211 160.069 24.8633 158.643 25.5787L157.966 24.6796C159.774 23.8481 161.273 21.5276 161.282 19.2265V17.0124H162.355V19.2265ZM166.977 28.1312V15.9586H168.05V28.1312H166.977ZM174.332 18.2113C174.332 19.826 175.521 21.3052 177.319 21.924L176.768 22.7555C175.386 22.2673 174.332 21.2762 173.81 20.0242C173.288 21.4019 172.176 22.4751 170.745 22.9972L170.165 22.1657C171.992 21.518 173.259 19.9517 173.268 18.2113V17.6892H170.493V16.8094H177.058V17.6892H174.332V18.2113ZM171.76 24.8052V23.9254H179.717V28.1119H178.644V24.8052H171.76ZM178.644 23.2776V15.9586H179.717V19.1685H181.544V20.087H179.717V23.2776H178.644ZM191.8 15.9586V20.9669H193.83V21.866H191.8V28.1119H190.736V15.9586H191.8ZM182.325 18.8011V17.9116H185.448V16.1036H186.521V17.9116H189.557V18.8011H182.325ZM183.021 22.6008C183.011 20.9572 184.268 19.8066 185.999 19.8066C187.72 19.8066 188.967 20.9572 188.977 22.6008C188.967 24.2445 187.72 25.3854 185.999 25.3854C184.268 25.3854 183.011 24.2445 183.021 22.6008ZM184.046 22.6008C184.036 23.703 184.868 24.4862 185.999 24.4765C187.12 24.4862 187.942 23.703 187.952 22.6008C187.942 21.4986 187.12 20.7058 185.999 20.7058C184.868 20.7058 184.036 21.4986 184.046 22.6008ZM204.617 15.9586V28.1119H203.544V15.9586H204.617ZM194.726 24.9503C198.014 23.3936 199.691 21.0539 199.928 18.1533H195.287V17.2831H201.021C201.011 20.7735 199.387 23.8674 195.307 25.8301L194.726 24.9503Z" fill="white"/>
</svg>
