<svg width="25" height="24" viewBox="0 0 25 24" fill="none" xmlns="http://www.w3.org/2000/svg">
<path d="M15.6667 17H20.6667L19.4846 15.818M15.6667 17V18C15.6667 18.7956 15.3506 19.5587 14.788 20.1213C14.2254 20.6839 13.4623 21 12.6667 21C11.871 21 11.108 20.6839 10.5454 20.1213C9.98276 19.5587 9.66669 18.7956 9.66669 18V17M15.6667 17H9.66669M18.6667 11C18.6668 9.75894 18.2823 8.54834 17.5659 7.53489C16.8496 6.52144 15.8367 5.75496 14.6667 5.341V5C14.6667 4.46957 14.456 3.96086 14.0809 3.58579C13.7058 3.21071 13.1971 3 12.6667 3C12.1363 3 11.6275 3.21071 11.2525 3.58579C10.8774 3.96086 10.6667 4.46957 10.6667 5V5.341C8.33669 6.165 6.66669 8.388 6.66669 11V14.159C6.66669 14.697 6.45269 15.214 6.07169 15.595L4.66669 17H9.66669" stroke="black" stroke-linecap="round" stroke-linejoin="round"/>
<path d="M19.6295 13.4332C19.6295 13.915 19.239 14.3055 18.7572 14.3055C18.2754 14.3055 17.8849 13.915 17.8849 13.4332C17.8849 12.9514 18.2754 12.5609 18.7572 12.5609C19.239 12.5609 19.6295 12.9514 19.6295 13.4332Z" fill="black"/>
</svg>
