<svg width="25" height="24" viewBox="0 0 25 24" fill="none" xmlns="http://www.w3.org/2000/svg">
<path d="M17.7681 18.657C16.2678 20.1573 14.2329 21.0002 12.1111 21.0002C9.98932 21.0002 7.95444 20.1573 6.45411 18.657C4.95378 17.1567 4.1109 15.1218 4.1109 13C4.1109 10.8782 4.95378 8.84333 6.45411 7.343C6.45411 7.343 7.11111 9 9.11111 10C9.11111 8 9.61111 5 12.0971 3C14.1111 5 16.2011 5.777 17.7671 7.343C18.5113 8.08499 19.1014 8.96674 19.5037 9.93756C19.906 10.9084 20.1111 12.5905 20.1111 13C20.1111 13.4095 20.1111 13.6064 20.1111 14M9.99011 16.121C10.3385 16.4695 10.7674 16.7268 11.2388 16.8702C11.7102 17.0135 12.2097 17.0386 12.6932 16.9431C13.1766 16.8476 13.629 16.6345 14.0105 16.3226C14.392 16.0107 14.6908 15.6096 14.8805 15.1548C15.0702 14.7001 15.145 14.2056 15.0982 13.715C15.0513 13.2245 14.8844 12.753 14.6122 12.3423C14.3399 11.9316 13.9706 11.5943 13.537 11.3602C13.1034 11.1261 12.6189 11.0024 12.1261 11L11.1111 14H9.11111C9.11111 14.768 9.40411 15.536 9.99011 16.121Z" stroke="black" stroke-linecap="round" stroke-linejoin="round"/>
<circle cx="19.2388" cy="16.5398" r="0.872314" fill="black"/>
</svg>
