<svg width="24" height="24" viewBox="0 0 24 24" fill="none" xmlns="http://www.w3.org/2000/svg">
<path d="M19.4868 10.5964V9.19261C19.4868 5.57458 16.1346 2.6416 12 2.6416C7.86533 2.6416 4.51309 5.57458 4.51309 9.19261V10.5964M19.4868 17.1474C19.4868 21.3588 15.7434 21.3588 12 21.3588M14.1143 13.1219C13.5518 13.6843 12.789 14.0002 11.9936 14.0002C11.1982 14.0002 10.4354 13.6843 9.87286 13.1219M9.82405 10.1994V8.32467M14.1248 10.1994V8.32467M4.0786 10.8304H5.81662C6.0471 10.8304 6.26813 10.9219 6.4311 11.0849C6.59408 11.2479 6.68563 11.4689 6.68563 11.6994V16.0444C6.68563 16.2749 6.59408 16.4959 6.4311 16.6589C6.26813 16.8219 6.0471 16.9134 5.81662 16.9134H4.0786C3.61765 16.9134 3.17557 16.7303 2.84963 16.4044C2.52369 16.0784 2.34058 15.6364 2.34058 15.1754V12.5684C2.34058 12.1074 2.52369 11.6654 2.84963 11.3394C3.17557 11.0135 3.61765 10.8304 4.0786 10.8304ZM19.9213 16.9134H18.1833C17.9528 16.9134 17.7318 16.8219 17.5688 16.6589C17.4058 16.4959 17.3143 16.2749 17.3143 16.0444V11.6994C17.3143 11.4689 17.4058 11.2479 17.5688 11.0849C17.7318 10.9219 17.9528 10.8304 18.1833 10.8304H19.9213C20.3823 10.8304 20.8243 11.0135 21.1503 11.3394C21.4762 11.6654 21.6593 12.1074 21.6593 12.5684V15.1754C21.6593 15.6364 21.4762 16.0784 21.1503 16.4044C20.8243 16.7303 20.3823 16.9134 19.9213 16.9134Z" stroke="#40474F" stroke-linecap="round" stroke-linejoin="round"/>
</svg>
