<svg width="90" height="90" viewBox="0 0 90 90" fill="none" xmlns="http://www.w3.org/2000/svg">
<circle cx="45" cy="45" r="30" fill="white"/>
<path fill-rule="evenodd" clip-rule="evenodd" d="M45 81C54.5478 81 63.7045 77.2072 70.4558 70.4558C77.2072 63.7045 81 54.5478 81 45C81 35.4522 77.2072 26.2955 70.4558 19.5442C63.7045 12.7928 54.5478 9 45 9C35.4522 9 26.2955 12.7928 19.5442 19.5442C12.7928 26.2955 9 35.4522 9 45C9 54.5478 12.7928 63.7045 19.5442 70.4558C26.2955 77.2072 35.4522 81 45 81ZM36 31.5C34.8065 31.5 33.6619 31.9741 32.818 32.818C31.9741 33.6619 31.5 34.8065 31.5 36V54C31.5 55.1935 31.9741 56.3381 32.818 57.182C33.6619 58.0259 34.8065 58.5 36 58.5H54C55.1935 58.5 56.3381 58.0259 57.182 57.182C58.0259 56.3381 58.5 55.1935 58.5 54V36C58.5 34.8065 58.0259 33.6619 57.182 32.818C56.3381 31.9741 55.1935 31.5 54 31.5H36Z" fill="#2265C9"/>
</svg>
