<svg width="48" height="48" viewBox="0 0 48 48" fill="none" xmlns="http://www.w3.org/2000/svg">
<circle cx="24" cy="24" r="16" fill="white"/>
<path fill-rule="evenodd" clip-rule="evenodd" d="M24 43.2C29.0921 43.2 33.9757 41.1772 37.5764 37.5765C41.1771 33.9758 43.2 29.0922 43.2 24C43.2 18.9078 41.1771 14.0243 37.5764 10.4236C33.9757 6.82285 29.0921 4.8 24 4.8C18.9078 4.8 14.0242 6.82285 10.4235 10.4236C6.82284 14.0243 4.79999 18.9078 4.79999 24C4.79999 29.0922 6.82284 33.9758 10.4235 37.5765C14.0242 41.1772 18.9078 43.2 24 43.2ZM19.2 16.8C18.5635 16.8 17.953 17.0529 17.5029 17.5029C17.0528 17.953 16.8 18.5635 16.8 19.2V28.8C16.8 29.4365 17.0528 30.047 17.5029 30.4971C17.953 30.9471 18.5635 31.2 19.2 31.2H28.8C29.4365 31.2 30.047 30.9471 30.497 30.4971C30.9471 30.047 31.2 29.4365 31.2 28.8V19.2C31.2 18.5635 30.9471 17.953 30.497 17.5029C30.047 17.0529 29.4365 16.8 28.8 16.8H19.2Z" fill="#0A0A0B"/>
</svg>
